<svg width="512" height="512" viewBox="0 0 512 512" xmlns="http://www.w3.org/2000/svg">
  <!-- 배경 그라데이션 정의 -->
  <defs>
    <linearGradient id="bgGradient" x1="0%" y1="0%" x2="100%" y2="100%">
      <stop offset="0%" style="stop-color:#F5E6D3;stop-opacity:1" />
      <stop offset="100%" style="stop-color:#FAFAFA;stop-opacity:1" />
    </linearGradient>
    
    <linearGradient id="roofGradient" x1="0%" y1="0%" x2="0%" y2="100%">
      <stop offset="0%" style="stop-color:#D03A29;stop-opacity:1" />
      <stop offset="100%" style="stop-color:#B53325;stop-opacity:1" />
    </linearGradient>
    
    <linearGradient id="markerGradient" x1="0%" y1="0%" x2="0%" y2="100%">
      <stop offset="0%" style="stop-color:#2B4C8C;stop-opacity:1" />
      <stop offset="100%" style="stop-color:#1F3660;stop-opacity:1" />
    </linearGradient>
  </defs>
  
  <!-- 배경 원 -->
  <rect width="512" height="512" rx="112" fill="url(#bgGradient)"/>
  
  <!-- 한옥 지붕 처마선 (상단) -->
  <path d="M 80 180 Q 256 120 432 180 L 432 200 Q 256 160 80 200 Z" 
        fill="url(#roofGradient)" 
        opacity="0.95"/>
  
  <!-- 한옥 지붕 중앙 장식 -->
  <circle cx="256" cy="160" r="20" fill="#7BA098" opacity="0.8"/>
  <circle cx="256" cy="160" r="12" fill="#FAFAFA"/>
  
  <!-- 위치 마커 (중앙) -->
  <g transform="translate(256, 280)">
    <!-- 마커 본체 -->
    <path d="M 0 -60 C -33 -60 -60 -33 -60 0 C -60 20 -30 60 0 100 C 30 60 60 20 60 0 C 60 -33 33 -60 0 -60 Z" 
          fill="url(#markerGradient)" 
          opacity="0.95"/>
    
    <!-- 마커 중심 원 -->
    <circle cx="0" cy="0" r="25" fill="#FAFAFA" opacity="0.95"/>
    
    <!-- 전통 문양 (태극 모티브) -->
    <g transform="scale(0.8)">
      <path d="M 0 -15 A 7.5 7.5 0 0 1 0 0 A 15 15 0 0 0 0 15 A 7.5 7.5 0 0 1 0 0 A 15 15 0 0 0 0 -15" 
            fill="#D03A29"/>
      <circle cx="0" cy="-7.5" r="2.5" fill="#D03A29"/>
      <circle cx="0" cy="7.5" r="2.5" fill="#2B4C8C"/>
    </g>
  </g>
  
  <!-- 하단 장식 패턴 (단청 모티브) -->
  <g transform="translate(256, 420)">
    <rect x="-60" y="0" width="30" height="8" rx="4" fill="#7BA098" opacity="0.6"/>
    <rect x="-15" y="0" width="30" height="8" rx="4" fill="#D03A29" opacity="0.6"/>
    <rect x="30" y="0" width="30" height="8" rx="4" fill="#2B4C8C" opacity="0.6"/>
  </g>
</svg>