<svg width="512" height="512" viewBox="0 0 512 512" xmlns="http://www.w3.org/2000/svg">
  <!-- Android Adaptive Icon 전경 레이어 -->
  <defs>
    <linearGradient id="roofGradientFg" x1="0%" y1="0%" x2="0%" y2="100%">
      <stop offset="0%" style="stop-color:#D03A29;stop-opacity:1" />
      <stop offset="100%" style="stop-color:#B53325;stop-opacity:1" />
    </linearGradient>
    
    <linearGradient id="markerGradientFg" x1="0%" y1="0%" x2="0%" y2="100%">
      <stop offset="0%" style="stop-color:#2B4C8C;stop-opacity:1" />
      <stop offset="100%" style="stop-color:#1F3660;stop-opacity:1" />
    </linearGradient>
  </defs>
  
  <!-- 한옥 지붕 처마선 (상단) -->
  <path d="M 110 200 Q 256 140 402 200 L 402 220 Q 256 180 110 220 Z" 
        fill="url(#roofGradientFg)" 
        opacity="0.95"/>
  
  <!-- 한옥 지붕 중앙 장식 -->
  <circle cx="256" cy="180" r="18" fill="#7BA098" opacity="0.8"/>
  <circle cx="256" cy="180" r="10" fill="#FAFAFA"/>
  
  <!-- 위치 마커 (중앙) -->
  <g transform="translate(256, 290)">
    <!-- 마커 본체 -->
    <path d="M 0 -50 C -28 -50 -50 -28 -50 0 C -50 18 -25 50 0 85 C 25 50 50 18 50 0 C 50 -28 28 -50 0 -50 Z" 
          fill="url(#markerGradientFg)" 
          opacity="0.95"/>
    
    <!-- 마커 중심 원 -->
    <circle cx="0" cy="0" r="20" fill="#FAFAFA" opacity="0.95"/>
    
    <!-- 전통 문양 (태극 모티브) -->
    <g transform="scale(0.7)">
      <path d="M 0 -12 A 6 6 0 0 1 0 0 A 12 12 0 0 0 0 12 A 6 6 0 0 1 0 0 A 12 12 0 0 0 0 -12" 
            fill="#D03A29"/>
      <circle cx="0" cy="-6" r="2" fill="#D03A29"/>
      <circle cx="0" cy="6" r="2" fill="#2B4C8C"/>
    </g>
  </g>
  
  <!-- 하단 장식 패턴 (단청 모티브) -->
  <g transform="translate(256, 400)">
    <rect x="-50" y="0" width="25" height="6" rx="3" fill="#7BA098" opacity="0.6"/>
    <rect x="-12.5" y="0" width="25" height="6" rx="3" fill="#D03A29" opacity="0.6"/>
    <rect x="25" y="0" width="25" height="6" rx="3" fill="#2B4C8C" opacity="0.6"/>
  </g>
</svg>